<svg xmlns="http://www.w3.org/2000/svg" viewBox="-1,-11.666666666666666,38,23.333333333333332"><circle r="0.45" fill="#000"></circle><circle cx="1" cy="-1.66666667" r="0.45" fill="#dc241f"></circle><circle cx="1" cy="-2.66666667" r="0.45" fill="#dc241f"></circle><circle cx="1" cy="-3.66666667" r="0.45" fill="#dc241f"></circle><circle cx="1" cy="-4.66666667" r="0.45" fill="#dc241f"></circle><circle cx="1" cy="-5.66666667" r="0.45" fill="#dc241f"></circle><circle cx="1" cy="-6.66666667" r="0.45" fill="#dc241f"></circle><circle cx="1" cy="-7.66666667" r="0.45" fill="#dc241f"></circle><circle cx="1" cy="-8.66666667" r="0.45" fill="#dc241f"></circle><circle cx="1" cy="-9.66666667" r="0.45" fill="#dc241f"></circle><circle cx="1" cy="-10.66666667" r="0.45" fill="#dc241f"></circle><circle cx="2" cy="-1.66666667" r="0.45" fill="#dc241f"></circle><circle cx="2" cy="-2.66666667" r="0.45" fill="#dc241f"></circle><circle cx="2" cy="-3.66666667" r="0.45" fill="#dc241f"></circle><circle cx="2" cy="-4.66666667" r="0.45" fill="#dc241f"></circle><circle cx="2" cy="-5.66666667" r="0.45" fill="#dc241f"></circle><circle cx="2" cy="-6.66666667" r="0.45" fill="#dc241f"></circle><circle cx="2" cy="-7.66666667" r="0.45" fill="#dc241f"></circle><circle cx="2" cy="-8.66666667" r="0.45" fill="#dc241f"></circle><circle cx="2" cy="-9.66666667" r="0.45" fill="#dc241f"></circle><circle cx="2" cy="-10.66666667" r="0.45" fill="#dc241f"></circle><circle cx="3" cy="-1.66666667" r="0.45" fill="#dc241f"></circle><circle cx="3" cy="-2.66666667" r="0.45" fill="#dc241f"></circle><circle cx="3" cy="-3.66666667" r="0.45" fill="#dc241f"></circle><circle cx="3" cy="-4.66666667" r="0.45" fill="#dc241f"></circle><circle cx="3" cy="-5.66666667" r="0.45" fill="#dc241f"></circle><circle cx="3" cy="-6.66666667" r="0.45" fill="#dc241f"></circle><circle cx="3" cy="-7.66666667" r="0.45" fill="#dc241f"></circle><circle cx="3" cy="-8.66666667" r="0.45" fill="#dc241f"></circle><circle cx="3" cy="-9.66666667" r="0.45" fill="#dc241f"></circle><circle cx="3" cy="-10.66666667" r="0.45" fill="#dc241f"></circle><circle cx="4" cy="-1.66666667" r="0.45" fill="#dc241f"></circle><circle cx="4" cy="-2.66666667" r="0.45" fill="#dc241f"></circle><circle cx="4" cy="-3.66666667" r="0.45" fill="#dc241f"></circle><circle cx="4" cy="-4.66666667" r="0.45" fill="#dc241f"></circle><circle cx="4" cy="-5.66666667" r="0.45" fill="#dc241f"></circle><circle cx="4" cy="-6.66666667" r="0.45" fill="#dc241f"></circle><circle cx="4" cy="-7.66666667" r="0.45" fill="#dc241f"></circle><circle cx="4" cy="-8.66666667" r="0.45" fill="#dc241f"></circle><circle cx="4" cy="-9.66666667" r="0.45" fill="#dc241f"></circle><circle cx="4" cy="-10.66666667" r="0.45" fill="#dc241f"></circle><circle cx="5" cy="-1.66666667" r="0.45" fill="#dc241f"></circle><circle cx="5" cy="-2.66666667" r="0.45" fill="#dc241f"></circle><circle cx="5" cy="-3.66666667" r="0.45" fill="#dc241f"></circle><circle cx="5" cy="-4.66666667" r="0.45" fill="#dc241f"></circle><circle cx="5" cy="-5.66666667" r="0.45" fill="#dc241f"></circle><circle cx="5" cy="-6.66666667" r="0.45" fill="#dc241f"></circle><circle cx="5" cy="-7.66666667" r="0.45" fill="#dc241f"></circle><circle cx="5" cy="-8.66666667" r="0.45" fill="#dc241f"></circle><circle cx="5" cy="-9.66666667" r="0.45" fill="#dc241f"></circle><circle cx="5" cy="-10.66666667" r="0.45" fill="#dc241f"></circle><circle cx="6" cy="-1.66666667" r="0.45" fill="#dc241f"></circle><circle cx="6" cy="-2.66666667" r="0.45" fill="#dc241f"></circle><circle cx="6" cy="-3.66666667" r="0.45" fill="#dc241f"></circle><circle cx="6" cy="-4.66666667" r="0.45" fill="#dc241f"></circle><circle cx="6" cy="-5.66666667" r="0.45" fill="#dc241f"></circle><circle cx="6" cy="-6.66666667" r="0.45" fill="#dc241f"></circle><circle cx="6" cy="-7.66666667" r="0.45" fill="#dc241f"></circle><circle cx="6" cy="-8.66666667" r="0.45" fill="#dc241f"></circle><circle cx="6" cy="-9.66666667" r="0.45" fill="#dc241f"></circle><circle cx="6" cy="-10.66666667" r="0.45" fill="#dc241f"></circle><circle cx="7" cy="-1.66666667" r="0.45" fill="#dc241f"></circle><circle cx="7" cy="-2.66666667" r="0.45" fill="#dc241f"></circle><circle cx="7" cy="-3.66666667" r="0.45" fill="#dc241f"></circle><circle cx="7" cy="-4.66666667" r="0.45" fill="#dc241f"></circle><circle cx="7" cy="-5.66666667" r="0.45" fill="#dc241f"></circle><circle cx="7" cy="-6.66666667" r="0.45" fill="#dc241f"></circle><circle cx="7" cy="-7.66666667" r="0.45" fill="#dc241f"></circle><circle cx="7" cy="-8.66666667" r="0.45" fill="#dc241f"></circle><circle cx="7" cy="-9.66666667" r="0.45" fill="#dc241f"></circle><circle cx="7" cy="-10.66666667" r="0.45" fill="#dc241f"></circle><circle cx="8" cy="-1.66666667" r="0.45" fill="#dc241f"></circle><circle cx="8" cy="-2.66666667" r="0.45" fill="#dc241f"></circle><circle cx="8" cy="-3.66666667" r="0.45" fill="#dc241f"></circle><circle cx="8" cy="-4.66666667" r="0.45" fill="#dc241f"></circle><circle cx="8" cy="-5.66666667" r="0.45" fill="#dc241f"></circle><circle cx="8" cy="-6.66666667" r="0.45" fill="#dc241f"></circle><circle cx="8" cy="-7.66666667" r="0.45" fill="#dc241f"></circle><circle cx="8" cy="-8.66666667" r="0.45" fill="#dc241f"></circle><circle cx="8" cy="-9.66666667" r="0.45" fill="#dc241f"></circle><circle cx="8" cy="-10.66666667" r="0.45" fill="#dc241f"></circle><circle cx="9" cy="-1.66666667" r="0.45" fill="#dc241f"></circle><circle cx="9" cy="-2.66666667" r="0.45" fill="#dc241f"></circle><circle cx="9" cy="-3.66666667" r="0.45" fill="#dc241f"></circle><circle cx="9" cy="-4.66666667" r="0.45" fill="#dc241f"></circle><circle cx="9" cy="-5.66666667" r="0.45" fill="#dc241f"></circle><circle cx="9" cy="-6.66666667" r="0.45" fill="#dc241f"></circle><circle cx="9" cy="-7.66666667" r="0.45" fill="#dc241f"></circle><circle cx="9" cy="-8.66666667" r="0.45" fill="#dc241f"></circle><circle cx="9" cy="-9.66666667" r="0.45" fill="#dc241f"></circle><circle cx="9" cy="-10.66666667" r="0.45" fill="#dc241f"></circle><circle cx="10" cy="-1.66666667" r="0.45" fill="#dc241f"></circle><circle cx="10" cy="-2.66666667" r="0.45" fill="#dc241f"></circle><circle cx="10" cy="-3.66666667" r="0.45" fill="#dc241f"></circle><circle cx="10" cy="-4.66666667" r="0.45" fill="#dc241f"></circle><circle cx="10" cy="-5.66666667" r="0.45" fill="#dc241f"></circle><circle cx="10" cy="-6.66666667" r="0.45" fill="#dc241f"></circle><circle cx="10" cy="-7.66666667" r="0.45" fill="#dc241f"></circle><circle cx="10" cy="-8.66666667" r="0.45" fill="#dc241f"></circle><circle cx="10" cy="-9.66666667" r="0.45" fill="#dc241f"></circle><circle cx="10" cy="-10.66666667" r="0.45" fill="#dc241f"></circle><circle cx="11" cy="-1.66666667" r="0.45" fill="#dc241f"></circle><circle cx="11" cy="-2.66666667" r="0.45" fill="#dc241f"></circle><circle cx="11" cy="-3.66666667" r="0.45" fill="#dc241f"></circle><circle cx="11" cy="-4.66666667" r="0.45" fill="#dc241f"></circle><circle cx="11" cy="-5.66666667" r="0.45" fill="#dc241f"></circle><circle cx="11" cy="-6.66666667" r="0.45" fill="#dc241f"></circle><circle cx="11" cy="-7.66666667" r="0.45" fill="#dc241f"></circle><circle cx="11" cy="-8.66666667" r="0.45" fill="#dc241f"></circle><circle cx="11" cy="-9.66666667" r="0.45" fill="#dc241f"></circle><circle cx="11" cy="-10.66666667" r="0.45" fill="#dc241f"></circle><circle cx="12" cy="-1.66666667" r="0.45" fill="#dc241f"></circle><circle cx="12" cy="-2.66666667" r="0.45" fill="#dc241f"></circle><circle cx="12" cy="-3.66666667" r="0.45" fill="#dc241f"></circle><circle cx="12" cy="-4.66666667" r="0.45" fill="#dc241f"></circle><circle cx="12" cy="-5.66666667" r="0.45" fill="#dc241f"></circle><circle cx="12" cy="-6.66666667" r="0.45" fill="#dc241f"></circle><circle cx="12" cy="-7.66666667" r="0.45" fill="#dc241f"></circle><circle cx="12" cy="-8.66666667" r="0.45" fill="#dc241f"></circle><circle cx="12" cy="-9.66666667" r="0.45" fill="#dc241f"></circle><circle cx="12" cy="-10.66666667" r="0.45" fill="#dc241f"></circle><circle cx="13" cy="-1.66666667" r="0.45" fill="#dc241f"></circle><circle cx="13" cy="-2.66666667" r="0.45" fill="#dc241f"></circle><circle cx="13" cy="-3.66666667" r="0.45" fill="#dc241f"></circle><circle cx="13" cy="-4.66666667" r="0.45" fill="#dc241f"></circle><circle cx="13" cy="-5.66666667" r="0.45" fill="#dc241f"></circle><circle cx="13" cy="-6.66666667" r="0.45" fill="#dc241f"></circle><circle cx="13" cy="-7.66666667" r="0.45" fill="#dc241f"></circle><circle cx="13" cy="-8.66666667" r="0.45" fill="#dc241f"></circle><circle cx="13" cy="-9.66666667" r="0.45" fill="#dc241f"></circle><circle cx="13" cy="-10.66666667" r="0.45" fill="#dc241f"></circle><circle cx="14" cy="-1.66666667" r="0.45" fill="#dc241f"></circle><circle cx="14" cy="-2.66666667" r="0.45" fill="#dc241f"></circle><circle cx="14" cy="-3.66666667" r="0.45" fill="#dc241f"></circle><circle cx="14" cy="-4.66666667" r="0.45" fill="#dc241f"></circle><circle cx="14" cy="-5.66666667" r="0.45" fill="#dc241f"></circle><circle cx="14" cy="-6.66666667" r="0.45" fill="#dc241f"></circle><circle cx="14" cy="-7.66666667" r="0.45" fill="#dc241f"></circle><circle cx="14" cy="-8.66666667" r="0.45" fill="#dc241f"></circle><circle cx="14" cy="-9.66666667" r="0.45" fill="#dc241f"></circle><circle cx="14" cy="-10.66666667" r="0.45" fill="#dc241f"></circle><circle cx="15" cy="-1.66666667" r="0.45" fill="#dc241f"></circle><circle cx="15" cy="-2.66666667" r="0.45" fill="#dc241f"></circle><circle cx="15" cy="-3.66666667" r="0.45" fill="#dc241f"></circle><circle cx="15" cy="-4.66666667" r="0.45" fill="#dc241f"></circle><circle cx="15" cy="-5.66666667" r="0.45" fill="#dc241f"></circle><circle cx="15" cy="-6.66666667" r="0.45" fill="#dc241f"></circle><circle cx="15" cy="-7.66666667" r="0.45" fill="#dc241f"></circle><circle cx="15" cy="-8.66666667" r="0.45" fill="#dc241f"></circle><circle cx="15" cy="-9.66666667" r="0.45" fill="#dc241f"></circle><circle cx="15" cy="-10.66666667" r="0.45" fill="#dc241f"></circle><circle cx="16" cy="-1.66666667" r="0.45" fill="#dc241f"></circle><circle cx="16" cy="-2.66666667" r="0.45" fill="#dc241f"></circle><circle cx="16" cy="-3.66666667" r="0.45" fill="#dc241f"></circle><circle cx="16" cy="-4.66666667" r="0.45" fill="#dc241f"></circle><circle cx="16" cy="-5.66666667" r="0.45" fill="#dc241f"></circle><circle cx="16" cy="-6.66666667" r="0.45" fill="#dc241f"></circle><circle cx="16" cy="-7.66666667" r="0.45" fill="#dc241f"></circle><circle cx="16" cy="-8.66666667" r="0.45" fill="#dc241f"></circle><circle cx="16" cy="-9.66666667" r="0.45" fill="#dc241f"></circle><circle cx="16" cy="-10.66666667" r="0.45" fill="#dc241f"></circle><circle cx="17" cy="-1.66666667" r="0.45" fill="#dc241f"></circle><circle cx="17" cy="-2.66666667" r="0.45" fill="#dc241f"></circle><circle cx="17" cy="-3.66666667" r="0.45" fill="#dc241f"></circle><circle cx="17" cy="-4.66666667" r="0.45" fill="#dc241f"></circle><circle cx="17" cy="-5.66666667" r="0.45" fill="#dc241f"></circle><circle cx="17" cy="-6.66666667" r="0.45" fill="#dc241f"></circle><circle cx="17" cy="-7.66666667" r="0.45" fill="#dc241f"></circle><circle cx="17" cy="-8.66666667" r="0.45" fill="#dc241f"></circle><circle cx="17" cy="-9.66666667" r="0.45" fill="#dc241f"></circle><circle cx="17" cy="-10.66666667" r="0.45" fill="#dc241f"></circle><circle cx="18" cy="-1.66666667" r="0.45" fill="#dc241f"></circle><circle cx="18" cy="-2.66666667" r="0.45" fill="#dc241f"></circle><circle cx="18" cy="-3.66666667" r="0.45" fill="#dc241f"></circle><circle cx="18" cy="-4.66666667" r="0.45" fill="#dc241f"></circle><circle cx="18" cy="-5.66666667" r="0.45" fill="#dc241f"></circle><circle cx="18" cy="-6.66666667" r="0.45" fill="#dc241f"></circle><circle cx="18" cy="-7.66666667" r="0.45" fill="#dc241f"></circle><circle cx="18" cy="-8.66666667" r="0.45" fill="#dc241f"></circle><circle cx="18" cy="-9.66666667" r="0.45" fill="#dc241f"></circle><circle cx="18" cy="-10.66666667" r="0.45" fill="#dc241f"></circle><circle cx="19" cy="-1.66666667" r="0.45" fill="#dc241f"></circle><circle cx="19" cy="-2.66666667" r="0.45" fill="#dc241f"></circle><circle cx="19" cy="-3.66666667" r="0.45" fill="#dc241f"></circle><circle cx="19" cy="-4.66666667" r="0.45" fill="#dc241f"></circle><circle cx="19" cy="-5.66666667" r="0.45" fill="#dc241f"></circle><circle cx="19" cy="-6.66666667" r="0.45" fill="#dc241f"></circle><circle cx="19" cy="-7.66666667" r="0.45" fill="#dc241f"></circle><circle cx="19" cy="-8.66666667" r="0.45" fill="#dc241f"></circle><circle cx="19" cy="-9.66666667" r="0.45" fill="#dc241f"></circle><circle cx="19" cy="-10.66666667" r="0.45" fill="#dc241f"></circle><circle cx="20" cy="-1.66666667" r="0.45" fill="#dc241f"></circle><circle cx="20" cy="-2.66666667" r="0.45" fill="#dc241f"></circle><circle cx="20" cy="-3.66666667" r="0.45" fill="#dc241f"></circle><circle cx="20" cy="-4.66666667" r="0.45" fill="#dc241f"></circle><circle cx="20" cy="-5.66666667" r="0.45" fill="#dc241f"></circle><circle cx="20" cy="-6.66666667" r="0.45" fill="#dc241f"></circle><circle cx="20" cy="-7.66666667" r="0.45" fill="#dc241f"></circle><circle cx="20" cy="-8.66666667" r="0.45" fill="#dc241f"></circle><circle cx="20" cy="-9.66666667" r="0.45" fill="#dc241f"></circle><circle cx="20" cy="-10.66666667" r="0.45" fill="#dc241f"></circle><circle cx="21" cy="-1.66666667" r="0.45" fill="#dc241f"></circle><circle cx="21" cy="-2.66666667" r="0.45" fill="#dc241f"></circle><circle cx="21" cy="-3.66666667" r="0.45" fill="#dc241f"></circle><circle cx="21" cy="-4.66666667" r="0.45" fill="#dc241f"></circle><circle cx="21" cy="-5.66666667" r="0.45" fill="#dc241f"></circle><circle cx="21" cy="-6.66666667" r="0.45" fill="#dc241f"></circle><circle cx="21" cy="-7.66666667" r="0.45" fill="#dc241f"></circle><circle cx="21" cy="-8.66666667" r="0.45" fill="#dc241f"></circle><circle cx="21" cy="-9.66666667" r="0.45" fill="#dc241f"></circle><circle cx="21" cy="-10.66666667" r="0.45" fill="#dc241f"></circle><circle cx="22" cy="-1.66666667" r="0.45" fill="#dc241f"></circle><circle cx="22" cy="-2.66666667" r="0.45" fill="#dc241f"></circle><circle cx="22" cy="-3.66666667" r="0.45" fill="#dc241f"></circle><circle cx="22" cy="-4.66666667" r="0.45" fill="#dc241f"></circle><circle cx="22" cy="-5.66666667" r="0.45" fill="#dc241f"></circle><circle cx="22" cy="-6.66666667" r="0.45" fill="#dc241f"></circle><circle cx="22" cy="-7.66666667" r="0.45" fill="#dc241f"></circle><circle cx="22" cy="-8.66666667" r="0.45" fill="#dc241f"></circle><circle cx="22" cy="-9.66666667" r="0.45" fill="#dc241f"></circle><circle cx="22" cy="-10.66666667" r="0.45" fill="#dc241f"></circle><circle cx="23" cy="-1.66666667" r="0.45" fill="#dc241f"></circle><circle cx="23" cy="-2.66666667" r="0.45" fill="#dc241f"></circle><circle cx="23" cy="-3.66666667" r="0.45" fill="#dc241f"></circle><circle cx="23" cy="-4.66666667" r="0.45" fill="#dc241f"></circle><circle cx="23" cy="-5.66666667" r="0.45" fill="#dc241f"></circle><circle cx="23" cy="-6.66666667" r="0.45" fill="#dc241f"></circle><circle cx="23" cy="-7.66666667" r="0.45" fill="#dc241f"></circle><circle cx="23" cy="-8.66666667" r="0.45" fill="#dc241f"></circle><circle cx="23" cy="-9.66666667" r="0.45" fill="#dc241f"></circle><circle cx="23" cy="-10.66666667" r="0.45" fill="#dc241f"></circle><circle cx="24" cy="-1.66666667" r="0.45" fill="#dc241f"></circle><circle cx="24" cy="-2.66666667" r="0.45" fill="#dc241f"></circle><circle cx="24" cy="-3.66666667" r="0.45" fill="#dc241f"></circle><circle cx="24" cy="-4.66666667" r="0.45" fill="#dc241f"></circle><circle cx="24" cy="-5.66666667" r="0.45" fill="#dc241f"></circle><circle cx="24" cy="-6.66666667" r="0.45" fill="#dc241f"></circle><circle cx="24" cy="-7.66666667" r="0.45" fill="#dc241f"></circle><circle cx="24" cy="-8.66666667" r="0.45" fill="#dc241f"></circle><circle cx="24" cy="-9.66666667" r="0.45" fill="#dc241f"></circle><circle cx="24" cy="-10.66666667" r="0.45" fill="#dc241f"></circle><circle cx="25" cy="-1.66666667" r="0.45" fill="#dc241f"></circle><circle cx="25" cy="-2.66666667" r="0.45" fill="#dc241f"></circle><circle cx="25" cy="-3.66666667" r="0.45" fill="#dc241f"></circle><circle cx="25" cy="-4.66666667" r="0.45" fill="#dc241f"></circle><circle cx="25" cy="-5.66666667" r="0.45" fill="#dc241f"></circle><circle cx="25" cy="-6.66666667" r="0.45" fill="#dc241f"></circle><circle cx="25" cy="-7.66666667" r="0.45" fill="#dc241f"></circle><circle cx="25" cy="-8.66666667" r="0.45" fill="#dc241f"></circle><circle cx="25" cy="-9.66666667" r="0.45" fill="#dc241f"></circle><circle cx="25" cy="-10.66666667" r="0.45" fill="#dc241f"></circle><circle cx="26" cy="-1.66666667" r="0.45" fill="#dc241f"></circle><circle cx="26" cy="-2.66666667" r="0.45" fill="#dc241f"></circle><circle cx="26" cy="-3.66666667" r="0.45" fill="#dc241f"></circle><circle cx="26" cy="-4.66666667" r="0.45" fill="#dc241f"></circle><circle cx="26" cy="-5.66666667" r="0.45" fill="#dc241f"></circle><circle cx="26" cy="-6.66666667" r="0.45" fill="#dc241f"></circle><circle cx="26" cy="-7.66666667" r="0.45" fill="#dc241f"></circle><circle cx="26" cy="-8.66666667" r="0.45" fill="#dc241f"></circle><circle cx="26" cy="-9.66666667" r="0.45" fill="#dc241f"></circle><circle cx="26" cy="-10.66666667" r="0.45" fill="#dc241f"></circle><circle cx="27" cy="-1.66666667" r="0.45" fill="#dc241f"></circle><circle cx="27" cy="-2.66666667" r="0.45" fill="#dc241f"></circle><circle cx="27" cy="-3.66666667" r="0.45" fill="#ff0"></circle><circle cx="27" cy="-4.66666667" r="0.45" fill="#ff0"></circle><circle cx="27" cy="-5.66666667" r="0.45" fill="#ff0"></circle><circle cx="27" cy="-6.66666667" r="0.45" fill="#ff0"></circle><circle cx="27" cy="-7.66666667" r="0.45" fill="#ff0"></circle><circle cx="27" cy="-8.66666667" r="0.45" fill="#ff0"></circle><circle cx="27" cy="-9.66666667" r="0.45" fill="#ff0"></circle><circle cx="27" cy="-10.66666667" r="0.45" fill="#ff0"></circle><circle cx="28" cy="-1.66666667" r="0.45" fill="#ff0"></circle><circle cx="28" cy="-2.66666667" r="0.45" fill="#ff0"></circle><circle cx="28" cy="-3.66666667" r="0.45" fill="#ff0"></circle><circle cx="28" cy="-4.66666667" r="0.45" fill="#ff0"></circle><circle cx="28" cy="-5.66666667" r="0.45" fill="#ff0"></circle><circle cx="28" cy="-6.66666667" r="0.45" fill="#ff0"></circle><circle cx="28" cy="-7.66666667" r="0.45" fill="#ff0"></circle><circle cx="28" cy="-8.66666667" r="0.45" fill="#ff0"></circle><circle cx="28" cy="-9.66666667" r="0.45" fill="#ff0"></circle><circle cx="28" cy="-10.66666667" r="0.45" fill="#ff0"></circle><circle cx="29" cy="-1.66666667" r="0.45" fill="#ff0"></circle><circle cx="29" cy="-2.66666667" r="0.45" fill="#ff0"></circle><circle cx="29" cy="-3.66666667" r="0.45" fill="#ff0"></circle><circle cx="29" cy="-4.66666667" r="0.45" fill="#ff0"></circle><circle cx="29" cy="-5.66666667" r="0.45" fill="#ff0"></circle><circle cx="29" cy="-6.66666667" r="0.45" fill="#ff0"></circle><circle cx="29" cy="-7.66666667" r="0.45" fill="#ff0"></circle><circle cx="29" cy="-8.66666667" r="0.45" fill="#ff0"></circle><circle cx="29" cy="-9.66666667" r="0.45" fill="#ff0"></circle><circle cx="29" cy="-10.66666667" r="0.45" fill="#ff0"></circle><circle cx="30" cy="-1.66666667" r="0.45" fill="#ff0"></circle><circle cx="30" cy="-2.66666667" r="0.45" fill="#ff0"></circle><circle cx="30" cy="-3.66666667" r="0.45" fill="#ff0"></circle><circle cx="30" cy="-4.66666667" r="0.45" fill="#ff0"></circle><circle cx="30" cy="-5.66666667" r="0.45" fill="#ff0"></circle><circle cx="30" cy="-6.66666667" r="0.45" fill="#ff0"></circle><circle cx="30" cy="-7.66666667" r="0.45" fill="#ff0"></circle><circle cx="30" cy="-8.66666667" r="0.45" fill="#faa61a"></circle><circle cx="30" cy="-9.66666667" r="0.45" fill="#faa61a"></circle><circle cx="30" cy="-10.66666667" r="0.45" fill="#faa61a"></circle><circle cx="31" cy="-1.66666667" r="0.45" fill="#faa61a"></circle><circle cx="31" cy="-2.66666667" r="0.45" fill="#faa61a"></circle><circle cx="31" cy="-3.66666667" r="0.45" fill="#faa61a"></circle><circle cx="31" cy="-4.66666667" r="0.45" fill="#faa61a"></circle><circle cx="31" cy="-5.66666667" r="0.45" fill="#faa61a"></circle><circle cx="31" cy="-6.66666667" r="0.45" fill="#faa61a"></circle><circle cx="31" cy="-7.66666667" r="0.45" fill="#faa61a"></circle><circle cx="31" cy="-8.66666667" r="0.45" fill="#faa61a"></circle><circle cx="31" cy="-9.66666667" r="0.45" fill="#faa61a"></circle><circle cx="31" cy="-10.66666667" r="0.45" fill="#080"></circle><circle cx="32" cy="-1.66666667" r="0.45" fill="#080"></circle><circle cx="32" cy="-2.66666667" r="0.45" fill="#080"></circle><circle cx="32" cy="-3.66666667" r="0.45" fill="#080"></circle><circle cx="32" cy="-4.66666667" r="0.45" fill="#080"></circle><circle cx="32" cy="-5.66666667" r="0.45" fill="#080"></circle><circle cx="32" cy="-6.66666667" r="0.45" fill="#080"></circle><circle cx="32" cy="-7.66666667" r="0.45" fill="#008142"></circle><circle cx="32" cy="-8.66666667" r="0.45" fill="#008142"></circle><circle cx="32" cy="-9.66666667" r="0.45" fill="#008142"></circle><circle cx="32" cy="-10.66666667" r="0.45" fill="#008142"></circle><circle cx="33" cy="-1.66666667" r="0.45" fill="#6ab023"></circle><circle cx="33" cy="-2.66666667" r="0.45" fill="#aadfff"></circle><circle cx="1" cy="1.66666667" r="0.45" fill="#0087dc"></circle><circle cx="1" cy="2.66666667" r="0.45" fill="#0087dc"></circle><circle cx="1" cy="3.66666667" r="0.45" fill="#0087dc"></circle><circle cx="1" cy="4.66666667" r="0.45" fill="#0087dc"></circle><circle cx="1" cy="5.66666667" r="0.45" fill="#0087dc"></circle><circle cx="1" cy="6.66666667" r="0.45" fill="#0087dc"></circle><circle cx="1" cy="7.66666667" r="0.45" fill="#0087dc"></circle><circle cx="1" cy="8.66666667" r="0.45" fill="#0087dc"></circle><circle cx="1" cy="9.66666667" r="0.45" fill="#0087dc"></circle><circle cx="1" cy="10.66666667" r="0.45" fill="#0087dc"></circle><circle cx="2" cy="1.66666667" r="0.45" fill="#0087dc"></circle><circle cx="2" cy="2.66666667" r="0.45" fill="#0087dc"></circle><circle cx="2" cy="3.66666667" r="0.45" fill="#0087dc"></circle><circle cx="2" cy="4.66666667" r="0.45" fill="#0087dc"></circle><circle cx="2" cy="5.66666667" r="0.45" fill="#0087dc"></circle><circle cx="2" cy="6.66666667" r="0.45" fill="#0087dc"></circle><circle cx="2" cy="7.66666667" r="0.45" fill="#0087dc"></circle><circle cx="2" cy="8.66666667" r="0.45" fill="#0087dc"></circle><circle cx="2" cy="9.66666667" r="0.45" fill="#0087dc"></circle><circle cx="2" cy="10.66666667" r="0.45" fill="#0087dc"></circle><circle cx="3" cy="1.66666667" r="0.45" fill="#0087dc"></circle><circle cx="3" cy="2.66666667" r="0.45" fill="#0087dc"></circle><circle cx="3" cy="3.66666667" r="0.45" fill="#0087dc"></circle><circle cx="3" cy="4.66666667" r="0.45" fill="#0087dc"></circle><circle cx="3" cy="5.66666667" r="0.45" fill="#0087dc"></circle><circle cx="3" cy="6.66666667" r="0.45" fill="#0087dc"></circle><circle cx="3" cy="7.66666667" r="0.45" fill="#0087dc"></circle><circle cx="3" cy="8.66666667" r="0.45" fill="#0087dc"></circle><circle cx="3" cy="9.66666667" r="0.45" fill="#0087dc"></circle><circle cx="3" cy="10.66666667" r="0.45" fill="#0087dc"></circle><circle cx="4" cy="1.66666667" r="0.45" fill="#0087dc"></circle><circle cx="4" cy="2.66666667" r="0.45" fill="#0087dc"></circle><circle cx="4" cy="3.66666667" r="0.45" fill="#0087dc"></circle><circle cx="4" cy="4.66666667" r="0.45" fill="#0087dc"></circle><circle cx="4" cy="5.66666667" r="0.45" fill="#0087dc"></circle><circle cx="4" cy="6.66666667" r="0.45" fill="#0087dc"></circle><circle cx="4" cy="7.66666667" r="0.45" fill="#0087dc"></circle><circle cx="4" cy="8.66666667" r="0.45" fill="#0087dc"></circle><circle cx="4" cy="9.66666667" r="0.45" fill="#0087dc"></circle><circle cx="4" cy="10.66666667" r="0.45" fill="#0087dc"></circle><circle cx="5" cy="1.66666667" r="0.45" fill="#0087dc"></circle><circle cx="5" cy="2.66666667" r="0.45" fill="#0087dc"></circle><circle cx="5" cy="3.66666667" r="0.45" fill="#0087dc"></circle><circle cx="5" cy="4.66666667" r="0.45" fill="#0087dc"></circle><circle cx="5" cy="5.66666667" r="0.45" fill="#0087dc"></circle><circle cx="5" cy="6.66666667" r="0.45" fill="#0087dc"></circle><circle cx="5" cy="7.66666667" r="0.45" fill="#0087dc"></circle><circle cx="5" cy="8.66666667" r="0.45" fill="#0087dc"></circle><circle cx="5" cy="9.66666667" r="0.45" fill="#0087dc"></circle><circle cx="5" cy="10.66666667" r="0.45" fill="#0087dc"></circle><circle cx="6" cy="1.66666667" r="0.45" fill="#0087dc"></circle><circle cx="6" cy="2.66666667" r="0.45" fill="#0087dc"></circle><circle cx="6" cy="3.66666667" r="0.45" fill="#0087dc"></circle><circle cx="6" cy="4.66666667" r="0.45" fill="#0087dc"></circle><circle cx="6" cy="5.66666667" r="0.45" fill="#0087dc"></circle><circle cx="6" cy="6.66666667" r="0.45" fill="#0087dc"></circle><circle cx="6" cy="7.66666667" r="0.45" fill="#0087dc"></circle><circle cx="6" cy="8.66666667" r="0.45" fill="#0087dc"></circle><circle cx="6" cy="9.66666667" r="0.45" fill="#0087dc"></circle><circle cx="6" cy="10.66666667" r="0.45" fill="#0087dc"></circle><circle cx="7" cy="1.66666667" r="0.45" fill="#0087dc"></circle><circle cx="7" cy="2.66666667" r="0.45" fill="#0087dc"></circle><circle cx="7" cy="3.66666667" r="0.45" fill="#0087dc"></circle><circle cx="7" cy="4.66666667" r="0.45" fill="#0087dc"></circle><circle cx="7" cy="5.66666667" r="0.45" fill="#0087dc"></circle><circle cx="7" cy="6.66666667" r="0.45" fill="#0087dc"></circle><circle cx="7" cy="7.66666667" r="0.45" fill="#0087dc"></circle><circle cx="7" cy="8.66666667" r="0.45" fill="#0087dc"></circle><circle cx="7" cy="9.66666667" r="0.45" fill="#0087dc"></circle><circle cx="7" cy="10.66666667" r="0.45" fill="#0087dc"></circle><circle cx="8" cy="1.66666667" r="0.45" fill="#0087dc"></circle><circle cx="8" cy="2.66666667" r="0.45" fill="#0087dc"></circle><circle cx="8" cy="3.66666667" r="0.45" fill="#0087dc"></circle><circle cx="8" cy="4.66666667" r="0.45" fill="#0087dc"></circle><circle cx="8" cy="5.66666667" r="0.45" fill="#0087dc"></circle><circle cx="8" cy="6.66666667" r="0.45" fill="#0087dc"></circle><circle cx="8" cy="7.66666667" r="0.45" fill="#0087dc"></circle><circle cx="8" cy="8.66666667" r="0.45" fill="#0087dc"></circle><circle cx="8" cy="9.66666667" r="0.45" fill="#0087dc"></circle><circle cx="8" cy="10.66666667" r="0.45" fill="#0087dc"></circle><circle cx="9" cy="1.66666667" r="0.45" fill="#0087dc"></circle><circle cx="9" cy="2.66666667" r="0.45" fill="#0087dc"></circle><circle cx="9" cy="3.66666667" r="0.45" fill="#0087dc"></circle><circle cx="9" cy="4.66666667" r="0.45" fill="#0087dc"></circle><circle cx="9" cy="5.66666667" r="0.45" fill="#0087dc"></circle><circle cx="9" cy="6.66666667" r="0.45" fill="#0087dc"></circle><circle cx="9" cy="7.66666667" r="0.45" fill="#0087dc"></circle><circle cx="9" cy="8.66666667" r="0.45" fill="#0087dc"></circle><circle cx="9" cy="9.66666667" r="0.45" fill="#0087dc"></circle><circle cx="9" cy="10.66666667" r="0.45" fill="#0087dc"></circle><circle cx="10" cy="1.66666667" r="0.45" fill="#0087dc"></circle><circle cx="10" cy="2.66666667" r="0.45" fill="#0087dc"></circle><circle cx="10" cy="3.66666667" r="0.45" fill="#0087dc"></circle><circle cx="10" cy="4.66666667" r="0.45" fill="#0087dc"></circle><circle cx="10" cy="5.66666667" r="0.45" fill="#0087dc"></circle><circle cx="10" cy="6.66666667" r="0.45" fill="#0087dc"></circle><circle cx="10" cy="7.66666667" r="0.45" fill="#0087dc"></circle><circle cx="10" cy="8.66666667" r="0.45" fill="#0087dc"></circle><circle cx="10" cy="9.66666667" r="0.45" fill="#0087dc"></circle><circle cx="10" cy="10.66666667" r="0.45" fill="#0087dc"></circle><circle cx="11" cy="1.66666667" r="0.45" fill="#0087dc"></circle><circle cx="11" cy="2.66666667" r="0.45" fill="#0087dc"></circle><circle cx="11" cy="3.66666667" r="0.45" fill="#0087dc"></circle><circle cx="11" cy="4.66666667" r="0.45" fill="#0087dc"></circle><circle cx="11" cy="5.66666667" r="0.45" fill="#0087dc"></circle><circle cx="11" cy="6.66666667" r="0.45" fill="#0087dc"></circle><circle cx="11" cy="7.66666667" r="0.45" fill="#0087dc"></circle><circle cx="11" cy="8.66666667" r="0.45" fill="#0087dc"></circle><circle cx="11" cy="9.66666667" r="0.45" fill="#0087dc"></circle><circle cx="11" cy="10.66666667" r="0.45" fill="#0087dc"></circle><circle cx="12" cy="1.66666667" r="0.45" fill="#0087dc"></circle><circle cx="12" cy="2.66666667" r="0.45" fill="#0087dc"></circle><circle cx="12" cy="3.66666667" r="0.45" fill="#0087dc"></circle><circle cx="12" cy="4.66666667" r="0.45" fill="#0087dc"></circle><circle cx="12" cy="5.66666667" r="0.45" fill="#0087dc"></circle><circle cx="12" cy="6.66666667" r="0.45" fill="#0087dc"></circle><circle cx="12" cy="7.66666667" r="0.45" fill="#0087dc"></circle><circle cx="12" cy="8.66666667" r="0.45" fill="#0087dc"></circle><circle cx="12" cy="9.66666667" r="0.45" fill="#0087dc"></circle><circle cx="12" cy="10.66666667" r="0.45" fill="#0087dc"></circle><circle cx="13" cy="1.66666667" r="0.45" fill="#0087dc"></circle><circle cx="13" cy="2.66666667" r="0.45" fill="#0087dc"></circle><circle cx="13" cy="3.66666667" r="0.45" fill="#0087dc"></circle><circle cx="13" cy="4.66666667" r="0.45" fill="#0087dc"></circle><circle cx="13" cy="5.66666667" r="0.45" fill="#0087dc"></circle><circle cx="13" cy="6.66666667" r="0.45" fill="#0087dc"></circle><circle cx="13" cy="7.66666667" r="0.45" fill="#0087dc"></circle><circle cx="13" cy="8.66666667" r="0.45" fill="#0087dc"></circle><circle cx="13" cy="9.66666667" r="0.45" fill="#0087dc"></circle><circle cx="13" cy="10.66666667" r="0.45" fill="#0087dc"></circle><circle cx="14" cy="1.66666667" r="0.45" fill="#0087dc"></circle><circle cx="14" cy="2.66666667" r="0.45" fill="#0087dc"></circle><circle cx="14" cy="3.66666667" r="0.45" fill="#0087dc"></circle><circle cx="14" cy="4.66666667" r="0.45" fill="#0087dc"></circle><circle cx="14" cy="5.66666667" r="0.45" fill="#0087dc"></circle><circle cx="14" cy="6.66666667" r="0.45" fill="#0087dc"></circle><circle cx="14" cy="7.66666667" r="0.45" fill="#0087dc"></circle><circle cx="14" cy="8.66666667" r="0.45" fill="#0087dc"></circle><circle cx="14" cy="9.66666667" r="0.45" fill="#0087dc"></circle><circle cx="14" cy="10.66666667" r="0.45" fill="#0087dc"></circle><circle cx="15" cy="1.66666667" r="0.45" fill="#0087dc"></circle><circle cx="15" cy="2.66666667" r="0.45" fill="#0087dc"></circle><circle cx="15" cy="3.66666667" r="0.45" fill="#0087dc"></circle><circle cx="15" cy="4.66666667" r="0.45" fill="#0087dc"></circle><circle cx="15" cy="5.66666667" r="0.45" fill="#0087dc"></circle><circle cx="15" cy="6.66666667" r="0.45" fill="#0087dc"></circle><circle cx="15" cy="7.66666667" r="0.45" fill="#0087dc"></circle><circle cx="15" cy="8.66666667" r="0.45" fill="#0087dc"></circle><circle cx="15" cy="9.66666667" r="0.45" fill="#0087dc"></circle><circle cx="15" cy="10.66666667" r="0.45" fill="#0087dc"></circle><circle cx="16" cy="1.66666667" r="0.45" fill="#0087dc"></circle><circle cx="16" cy="2.66666667" r="0.45" fill="#0087dc"></circle><circle cx="16" cy="3.66666667" r="0.45" fill="#0087dc"></circle><circle cx="16" cy="4.66666667" r="0.45" fill="#0087dc"></circle><circle cx="16" cy="5.66666667" r="0.45" fill="#0087dc"></circle><circle cx="16" cy="6.66666667" r="0.45" fill="#0087dc"></circle><circle cx="16" cy="7.66666667" r="0.45" fill="#0087dc"></circle><circle cx="16" cy="8.66666667" r="0.45" fill="#0087dc"></circle><circle cx="16" cy="9.66666667" r="0.45" fill="#0087dc"></circle><circle cx="16" cy="10.66666667" r="0.45" fill="#0087dc"></circle><circle cx="17" cy="1.66666667" r="0.45" fill="#0087dc"></circle><circle cx="17" cy="2.66666667" r="0.45" fill="#0087dc"></circle><circle cx="17" cy="3.66666667" r="0.45" fill="#0087dc"></circle><circle cx="17" cy="4.66666667" r="0.45" fill="#0087dc"></circle><circle cx="17" cy="5.66666667" r="0.45" fill="#0087dc"></circle><circle cx="17" cy="6.66666667" r="0.45" fill="#0087dc"></circle><circle cx="17" cy="7.66666667" r="0.45" fill="#0087dc"></circle><circle cx="17" cy="8.66666667" r="0.45" fill="#0087dc"></circle><circle cx="17" cy="9.66666667" r="0.45" fill="#0087dc"></circle><circle cx="17" cy="10.66666667" r="0.45" fill="#0087dc"></circle><circle cx="18" cy="1.66666667" r="0.45" fill="#0087dc"></circle><circle cx="18" cy="2.66666667" r="0.45" fill="#0087dc"></circle><circle cx="18" cy="3.66666667" r="0.45" fill="#0087dc"></circle><circle cx="18" cy="4.66666667" r="0.45" fill="#0087dc"></circle><circle cx="18" cy="5.66666667" r="0.45" fill="#0087dc"></circle><circle cx="18" cy="6.66666667" r="0.45" fill="#0087dc"></circle><circle cx="18" cy="7.66666667" r="0.45" fill="#0087dc"></circle><circle cx="18" cy="8.66666667" r="0.45" fill="#0087dc"></circle><circle cx="18" cy="9.66666667" r="0.45" fill="#0087dc"></circle><circle cx="18" cy="10.66666667" r="0.45" fill="#0087dc"></circle><circle cx="19" cy="1.66666667" r="0.45" fill="#0087dc"></circle><circle cx="19" cy="2.66666667" r="0.45" fill="#0087dc"></circle><circle cx="19" cy="3.66666667" r="0.45" fill="#0087dc"></circle><circle cx="19" cy="4.66666667" r="0.45" fill="#0087dc"></circle><circle cx="19" cy="5.66666667" r="0.45" fill="#0087dc"></circle><circle cx="19" cy="6.66666667" r="0.45" fill="#0087dc"></circle><circle cx="19" cy="7.66666667" r="0.45" fill="#0087dc"></circle><circle cx="19" cy="8.66666667" r="0.45" fill="#0087dc"></circle><circle cx="19" cy="9.66666667" r="0.45" fill="#0087dc"></circle><circle cx="19" cy="10.66666667" r="0.45" fill="#0087dc"></circle><circle cx="20" cy="1.66666667" r="0.45" fill="#0087dc"></circle><circle cx="20" cy="2.66666667" r="0.45" fill="#0087dc"></circle><circle cx="20" cy="3.66666667" r="0.45" fill="#0087dc"></circle><circle cx="20" cy="4.66666667" r="0.45" fill="#0087dc"></circle><circle cx="20" cy="5.66666667" r="0.45" fill="#0087dc"></circle><circle cx="20" cy="6.66666667" r="0.45" fill="#0087dc"></circle><circle cx="20" cy="7.66666667" r="0.45" fill="#0087dc"></circle><circle cx="20" cy="8.66666667" r="0.45" fill="#0087dc"></circle><circle cx="20" cy="9.66666667" r="0.45" fill="#0087dc"></circle><circle cx="20" cy="10.66666667" r="0.45" fill="#0087dc"></circle><circle cx="21" cy="1.66666667" r="0.45" fill="#0087dc"></circle><circle cx="21" cy="2.66666667" r="0.45" fill="#0087dc"></circle><circle cx="21" cy="3.66666667" r="0.45" fill="#0087dc"></circle><circle cx="21" cy="4.66666667" r="0.45" fill="#0087dc"></circle><circle cx="21" cy="5.66666667" r="0.45" fill="#0087dc"></circle><circle cx="21" cy="6.66666667" r="0.45" fill="#0087dc"></circle><circle cx="21" cy="7.66666667" r="0.45" fill="#0087dc"></circle><circle cx="21" cy="8.66666667" r="0.45" fill="#0087dc"></circle><circle cx="21" cy="9.66666667" r="0.45" fill="#0087dc"></circle><circle cx="21" cy="10.66666667" r="0.45" fill="#0087dc"></circle><circle cx="22" cy="1.66666667" r="0.45" fill="#0087dc"></circle><circle cx="22" cy="2.66666667" r="0.45" fill="#0087dc"></circle><circle cx="22" cy="3.66666667" r="0.45" fill="#0087dc"></circle><circle cx="22" cy="4.66666667" r="0.45" fill="#0087dc"></circle><circle cx="22" cy="5.66666667" r="0.45" fill="#0087dc"></circle><circle cx="22" cy="6.66666667" r="0.45" fill="#0087dc"></circle><circle cx="22" cy="7.66666667" r="0.45" fill="#0087dc"></circle><circle cx="22" cy="8.66666667" r="0.45" fill="#0087dc"></circle><circle cx="22" cy="9.66666667" r="0.45" fill="#0087dc"></circle><circle cx="22" cy="10.66666667" r="0.45" fill="#0087dc"></circle><circle cx="23" cy="1.66666667" r="0.45" fill="#0087dc"></circle><circle cx="23" cy="2.66666667" r="0.45" fill="#0087dc"></circle><circle cx="23" cy="3.66666667" r="0.45" fill="#0087dc"></circle><circle cx="23" cy="4.66666667" r="0.45" fill="#0087dc"></circle><circle cx="23" cy="5.66666667" r="0.45" fill="#0087dc"></circle><circle cx="23" cy="6.66666667" r="0.45" fill="#0087dc"></circle><circle cx="23" cy="7.66666667" r="0.45" fill="#0087dc"></circle><circle cx="23" cy="8.66666667" r="0.45" fill="#0087dc"></circle><circle cx="23" cy="9.66666667" r="0.45" fill="#0087dc"></circle><circle cx="23" cy="10.66666667" r="0.45" fill="#0087dc"></circle><circle cx="24" cy="1.66666667" r="0.45" fill="#0087dc"></circle><circle cx="24" cy="2.66666667" r="0.45" fill="#0087dc"></circle><circle cx="24" cy="3.66666667" r="0.45" fill="#0087dc"></circle><circle cx="24" cy="4.66666667" r="0.45" fill="#0087dc"></circle><circle cx="24" cy="5.66666667" r="0.45" fill="#0087dc"></circle><circle cx="24" cy="6.66666667" r="0.45" fill="#0087dc"></circle><circle cx="24" cy="7.66666667" r="0.45" fill="#0087dc"></circle><circle cx="24" cy="8.66666667" r="0.45" fill="#0087dc"></circle><circle cx="24" cy="9.66666667" r="0.45" fill="#0087dc"></circle><circle cx="24" cy="10.66666667" r="0.45" fill="#0087dc"></circle><circle cx="25" cy="1.66666667" r="0.45" fill="#0087dc"></circle><circle cx="25" cy="2.66666667" r="0.45" fill="#0087dc"></circle><circle cx="25" cy="3.66666667" r="0.45" fill="#0087dc"></circle><circle cx="25" cy="4.66666667" r="0.45" fill="#0087dc"></circle><circle cx="25" cy="5.66666667" r="0.45" fill="#0087dc"></circle><circle cx="25" cy="6.66666667" r="0.45" fill="#0087dc"></circle><circle cx="25" cy="7.66666667" r="0.45" fill="#0087dc"></circle><circle cx="25" cy="8.66666667" r="0.45" fill="#0087dc"></circle><circle cx="25" cy="9.66666667" r="0.45" fill="#0087dc"></circle><circle cx="25" cy="10.66666667" r="0.45" fill="#0087dc"></circle><circle cx="26" cy="1.66666667" r="0.45" fill="#0087dc"></circle><circle cx="26" cy="2.66666667" r="0.45" fill="#0087dc"></circle><circle cx="26" cy="3.66666667" r="0.45" fill="#0087dc"></circle><circle cx="26" cy="4.66666667" r="0.45" fill="#0087dc"></circle><circle cx="26" cy="5.66666667" r="0.45" fill="#0087dc"></circle><circle cx="26" cy="6.66666667" r="0.45" fill="#0087dc"></circle><circle cx="26" cy="7.66666667" r="0.45" fill="#0087dc"></circle><circle cx="26" cy="8.66666667" r="0.45" fill="#0087dc"></circle><circle cx="26" cy="9.66666667" r="0.45" fill="#0087dc"></circle><circle cx="26" cy="10.66666667" r="0.45" fill="#0087dc"></circle><circle cx="27" cy="1.66666667" r="0.45" fill="#0087dc"></circle><circle cx="27" cy="2.66666667" r="0.45" fill="#0087dc"></circle><circle cx="27" cy="3.66666667" r="0.45" fill="#0087dc"></circle><circle cx="27" cy="4.66666667" r="0.45" fill="#0087dc"></circle><circle cx="27" cy="5.66666667" r="0.45" fill="#0087dc"></circle><circle cx="27" cy="6.66666667" r="0.45" fill="#0087dc"></circle><circle cx="27" cy="7.66666667" r="0.45" fill="#0087dc"></circle><circle cx="27" cy="8.66666667" r="0.45" fill="#0087dc"></circle><circle cx="27" cy="9.66666667" r="0.45" fill="#0087dc"></circle><circle cx="27" cy="10.66666667" r="0.45" fill="#0087dc"></circle><circle cx="28" cy="1.66666667" r="0.45" fill="#0087dc"></circle><circle cx="28" cy="2.66666667" r="0.45" fill="#0087dc"></circle><circle cx="28" cy="3.66666667" r="0.45" fill="#0087dc"></circle><circle cx="28" cy="4.66666667" r="0.45" fill="#0087dc"></circle><circle cx="28" cy="5.66666667" r="0.45" fill="#0087dc"></circle><circle cx="28" cy="6.66666667" r="0.45" fill="#0087dc"></circle><circle cx="28" cy="7.66666667" r="0.45" fill="#0087dc"></circle><circle cx="28" cy="8.66666667" r="0.45" fill="#0087dc"></circle><circle cx="28" cy="9.66666667" r="0.45" fill="#0087dc"></circle><circle cx="28" cy="10.66666667" r="0.45" fill="#0087dc"></circle><circle cx="29" cy="1.66666667" r="0.45" fill="#0087dc"></circle><circle cx="29" cy="2.66666667" r="0.45" fill="#0087dc"></circle><circle cx="29" cy="3.66666667" r="0.45" fill="#0087dc"></circle><circle cx="29" cy="4.66666667" r="0.45" fill="#0087dc"></circle><circle cx="29" cy="5.66666667" r="0.45" fill="#0087dc"></circle><circle cx="29" cy="6.66666667" r="0.45" fill="#0087dc"></circle><circle cx="29" cy="7.66666667" r="0.45" fill="#0087dc"></circle><circle cx="29" cy="8.66666667" r="0.45" fill="#0087dc"></circle><circle cx="29" cy="9.66666667" r="0.45" fill="#0087dc"></circle><circle cx="29" cy="10.66666667" r="0.45" fill="#0087dc"></circle><circle cx="30" cy="1.66666667" r="0.45" fill="#0087dc"></circle><circle cx="30" cy="2.66666667" r="0.45" fill="#0087dc"></circle><circle cx="30" cy="3.66666667" r="0.45" fill="#0087dc"></circle><circle cx="30" cy="4.66666667" r="0.45" fill="#0087dc"></circle><circle cx="30" cy="5.66666667" r="0.45" fill="#0087dc"></circle><circle cx="30" cy="6.66666667" r="0.45" fill="#0087dc"></circle><circle cx="30" cy="7.66666667" r="0.45" fill="#0087dc"></circle><circle cx="30" cy="8.66666667" r="0.45" fill="#0087dc"></circle><circle cx="30" cy="9.66666667" r="0.45" fill="#0087dc"></circle><circle cx="30" cy="10.66666667" r="0.45" fill="#0087dc"></circle><circle cx="31" cy="1.66666667" r="0.45" fill="#0087dc"></circle><circle cx="31" cy="2.66666667" r="0.45" fill="#0087dc"></circle><circle cx="31" cy="3.66666667" r="0.45" fill="#0087dc"></circle><circle cx="31" cy="4.66666667" r="0.45" fill="#0087dc"></circle><circle cx="31" cy="5.66666667" r="0.45" fill="#0087dc"></circle><circle cx="31" cy="6.66666667" r="0.45" fill="#0087dc"></circle><circle cx="31" cy="7.66666667" r="0.45" fill="#0087dc"></circle><circle cx="31" cy="8.66666667" r="0.45" fill="#0087dc"></circle><circle cx="31" cy="9.66666667" r="0.45" fill="#0087dc"></circle><circle cx="31" cy="10.66666667" r="0.45" fill="#0087dc"></circle><circle cx="32" cy="1.66666667" r="0.45" fill="#0087dc"></circle><circle cx="32" cy="2.66666667" r="0.45" fill="#0087dc"></circle><circle cx="32" cy="3.66666667" r="0.45" fill="#0087dc"></circle><circle cx="32" cy="4.66666667" r="0.45" fill="#0087dc"></circle><circle cx="32" cy="5.66666667" r="0.45" fill="#0087dc"></circle><circle cx="32" cy="6.66666667" r="0.45" fill="#0087dc"></circle><circle cx="32" cy="7.66666667" r="0.45" fill="#0087dc"></circle><circle cx="36" cy="-4.5" r="0.45" fill="#d46a4c"></circle><circle cx="36" cy="-3.5" r="0.45" fill="#d46a4c"></circle><circle cx="36" cy="-2.5" r="0.45" fill="#d46a4c"></circle><circle cx="36" cy="-1.5" r="0.45" fill="#d46a4c"></circle><circle cx="36" cy="-0.5" r="0.45" fill="#d46a4c"></circle><circle cx="36" cy="0.5" r="0.45" fill="#d46a4c"></circle><circle cx="36" cy="1.5" r="0.45" fill="#d46a4c"></circle><circle cx="36" cy="2.5" r="0.45" fill="#d46a4c"></circle><circle cx="36" cy="3.5" r="0.45" fill="#d46a4c"></circle><circle cx="36" cy="4.5" r="0.45" fill="#d46a4c"></circle></svg>